<?xml version="1.0" encoding="utf-8"?>
<!-- Generator: Adobe Illustrator 27.8.1, SVG Export Plug-In . SVG Version: 6.00 Build 0)  -->
<svg version="1.1" id="Layer_1" xmlns="http://www.w3.org/2000/svg" xmlns:xlink="http://www.w3.org/1999/xlink" x="0px" y="0px"
	 viewBox="0 0 175 30" style="enable-background:new 0 0 175 30;" xml:space="preserve">
<style type="text/css">
	.st0{fill:#FFFFFF;}
	.st1{fill:#FFFFFF;}
</style>
<g>
	<g>
		<path class="st0" d="M0.47,27.21V2.71H5.5v6.71l-0.06,6.23L5.5,18.1v9.11H0.47L0.47,27.21z M4.17,21.77v-4.95
			c0.51-0.86,1.02-1.66,1.53-2.41c0.5-0.75,1.04-1.5,1.61-2.24s1.21-1.54,1.92-2.4l6-7.05h6.14L11.03,14.67l-0.41-0.11L4.17,21.77z
			 M15.72,27.21L8.43,16.15l3.14-3.77l10.05,14.83H15.72L15.72,27.21z"/>
		<path class="st0" d="M33.75,27.56c-2.17,0-4.12-0.5-5.86-1.5c-1.73-1-3.1-2.43-4.1-4.31s-1.51-4.14-1.51-6.77
			c0-2.66,0.5-4.92,1.51-6.8c1-1.88,2.37-3.32,4.1-4.31c1.73-1,3.68-1.5,5.86-1.5s4.12,0.5,5.84,1.5c1.73,1,3.09,2.44,4.1,4.31
			c1,1.88,1.51,4.15,1.51,6.8c0,2.64-0.5,4.9-1.51,6.78c-1,1.88-2.37,3.32-4.1,4.31C37.87,27.06,35.92,27.56,33.75,27.56z
			 M33.75,23.1c1.27,0,2.38-0.31,3.34-0.94c0.95-0.62,1.7-1.54,2.23-2.76c0.53-1.21,0.8-2.69,0.8-4.43c0-1.75-0.27-3.24-0.8-4.46
			s-1.28-2.14-2.23-2.76s-2.06-0.94-3.34-0.94c-1.26,0-2.37,0.32-3.33,0.95c-0.96,0.63-1.7,1.55-2.24,2.76
			c-0.53,1.21-0.8,2.69-0.8,4.45c0,1.74,0.27,3.21,0.8,4.42c0.53,1.21,1.28,2.12,2.24,2.76C31.38,22.78,32.49,23.1,33.75,23.1z"/>
		<path class="st0" d="M48.75,27.21V2.71h16.33v4.21h-11.3v6.66h10.28v4.11H53.78v9.52C53.78,27.21,48.75,27.21,48.75,27.21z"/>
		<path class="st0" d="M73.51,2.71v24.5h-5.03V2.71H73.51z"/>
		<path class="st0" d="M78.5,27.21V2.71h8.47c1.86,0,3.42,0.34,4.66,1.01s2.17,1.59,2.78,2.76c0.62,1.16,0.92,2.48,0.92,3.94
			c0,1.47-0.31,2.79-0.93,3.96c-0.62,1.18-1.55,2.1-2.79,2.78s-2.79,1.02-4.66,1.02h-6.2v-2.73h6.1c1.26,0,2.29-0.22,3.08-0.64
			c0.79-0.43,1.38-1.02,1.75-1.79c0.37-0.76,0.56-1.63,0.56-2.6c0-0.98-0.18-1.84-0.56-2.59c-0.37-0.75-0.96-1.34-1.76-1.77
			s-1.84-0.64-3.11-0.64h-5.23v21.79L78.5,27.21L78.5,27.21z"/>
		<path class="st0" d="M109.79,27.56c-2.1,0-3.98-0.51-5.63-1.54c-1.65-1.03-2.95-2.49-3.89-4.38s-1.42-4.1-1.42-6.66
			c0-2.57,0.47-4.79,1.42-6.68c0.94-1.89,2.24-3.35,3.89-4.38c1.65-1.04,3.53-1.56,5.63-1.56c2.12,0,4,0.52,5.63,1.56
			c1.64,1.04,2.93,2.5,3.88,4.38c0.94,1.89,1.42,4.11,1.42,6.68c0,2.55-0.47,4.78-1.42,6.66c-0.94,1.89-2.24,3.34-3.88,4.38
			C113.78,27.04,111.91,27.56,109.79,27.56z M109.79,24.7c1.47,0,2.8-0.37,3.99-1.12c1.19-0.74,2.14-1.84,2.85-3.29
			c0.71-1.45,1.06-3.21,1.06-5.31s-0.36-3.88-1.06-5.34c-0.71-1.45-1.66-2.55-2.85-3.3c-1.19-0.74-2.52-1.12-3.99-1.12
			s-2.8,0.37-4,1.12c-1.19,0.75-2.15,1.85-2.85,3.3c-0.71,1.45-1.06,3.22-1.06,5.33c0,2.1,0.36,3.86,1.06,5.3
			c0.71,1.44,1.66,2.54,2.85,3.29C106.99,24.32,108.32,24.7,109.79,24.7z"/>
		<path class="st0" d="M133.34,27.64c-1.79,0-3.34-0.3-4.66-0.9s-2.35-1.43-3.08-2.5c-0.74-1.07-1.14-2.33-1.22-3.77h3.16
			c0.06,0.98,0.36,1.79,0.89,2.44c0.53,0.65,1.22,1.14,2.08,1.46s1.8,0.48,2.84,0.48c1.13,0,2.13-0.18,3.02-0.54
			c0.88-0.36,1.58-0.87,2.09-1.52s0.76-1.41,0.76-2.28c0-0.77-0.21-1.4-0.62-1.9c-0.42-0.5-0.99-0.91-1.72-1.24
			s-1.56-0.62-2.51-0.87l-2.91-0.81c-2.1-0.57-3.69-1.37-4.78-2.41c-1.1-1.04-1.65-2.37-1.65-4c0-1.39,0.37-2.6,1.1-3.64
			c0.74-1.04,1.73-1.84,3.01-2.42c1.27-0.58,2.71-0.86,4.31-0.86c1.63,0,3.07,0.29,4.32,0.87s2.22,1.38,2.93,2.4
			c0.71,1.02,1.09,2.18,1.14,3.49h-3.02c-0.13-1.27-0.7-2.26-1.7-2.96s-2.26-1.05-3.77-1.05c-1.05,0-1.98,0.18-2.78,0.53
			s-1.42,0.83-1.87,1.43s-0.67,1.3-0.67,2.07c0,0.8,0.24,1.45,0.73,1.96s1.1,0.92,1.82,1.23c0.73,0.3,1.45,0.56,2.18,0.76l2.52,0.67
			c0.78,0.2,1.58,0.46,2.38,0.8c0.81,0.34,1.56,0.76,2.26,1.28c0.69,0.51,1.25,1.16,1.68,1.92c0.43,0.77,0.64,1.69,0.64,2.76
			c0,1.36-0.36,2.58-1.06,3.65s-1.72,1.92-3.05,2.54C136.8,27.33,135.2,27.64,133.34,27.64z"/>
		<path class="st0" d="M145.21,5.44V2.71h18.61v2.73h-7.74v21.77h-3.09V5.44H145.21z"/>
		<!-- <path class="st0" d="M171.14,27.59c-0.97,0-1.77-0.32-2.43-0.96c-0.65-0.64-0.98-1.44-0.98-2.39c0-0.95,0.32-1.75,0.98-2.39
			c0.65-0.64,1.46-0.96,2.43-0.96c0.95,0,1.76,0.32,2.41,0.96c0.65,0.64,0.98,1.44,0.98,2.39c0,0.95-0.32,1.75-0.98,2.39
			C172.9,27.27,172.1,27.59,171.14,27.59z"/> -->
	</g>
	<g>
		<path class="st1" d="M0.47,27.21V2.71H5.5v6.71l-0.06,6.23L5.5,18.1v9.11H0.47L0.47,27.21z M4.17,21.77v-4.95
			c0.51-0.86,1.02-1.66,1.53-2.41c0.5-0.75,1.04-1.5,1.61-2.24s1.21-1.54,1.92-2.4l6-7.05h6.14L11.03,14.67l-0.41-0.11L4.17,21.77z
			 M15.72,27.21L8.43,16.15l3.14-3.77l10.05,14.83H15.72L15.72,27.21z"/>
		<path class="st1" d="M33.75,27.56c-2.17,0-4.12-0.5-5.86-1.5c-1.73-1-3.1-2.43-4.1-4.31s-1.51-4.14-1.51-6.77
			c0-2.66,0.5-4.92,1.51-6.8c1-1.88,2.37-3.32,4.1-4.31c1.73-1,3.68-1.5,5.86-1.5s4.12,0.5,5.84,1.5c1.73,1,3.09,2.44,4.1,4.31
			c1,1.88,1.51,4.15,1.51,6.8c0,2.64-0.5,4.9-1.51,6.78c-1,1.88-2.37,3.32-4.1,4.31C37.87,27.06,35.92,27.56,33.75,27.56z
			 M33.75,23.1c1.27,0,2.38-0.31,3.34-0.94c0.95-0.62,1.7-1.54,2.23-2.76c0.53-1.21,0.8-2.69,0.8-4.43c0-1.75-0.27-3.24-0.8-4.46
			s-1.28-2.14-2.23-2.76s-2.06-0.94-3.34-0.94c-1.26,0-2.37,0.32-3.33,0.95c-0.96,0.63-1.7,1.55-2.24,2.76
			c-0.53,1.21-0.8,2.69-0.8,4.45c0,1.74,0.27,3.21,0.8,4.42c0.53,1.21,1.28,2.12,2.24,2.76C31.38,22.78,32.49,23.1,33.75,23.1z"/>
		<path class="st1" d="M48.75,27.21V2.71h16.33v4.21h-11.3v6.66h10.28v4.11H53.78v9.52C53.78,27.21,48.75,27.21,48.75,27.21z"/>
		<path class="st1" d="M73.51,2.71v24.5h-5.03V2.71H73.51z"/>
		<path class="st1" d="M78.5,27.21V2.71h8.47c1.86,0,3.42,0.34,4.66,1.01s2.17,1.59,2.78,2.76c0.62,1.16,0.92,2.48,0.92,3.94
			c0,1.47-0.31,2.79-0.93,3.96c-0.62,1.18-1.55,2.1-2.79,2.78s-2.79,1.02-4.66,1.02h-6.2v-2.73h6.1c1.26,0,2.29-0.22,3.08-0.64
			c0.79-0.43,1.38-1.02,1.75-1.79c0.37-0.76,0.56-1.63,0.56-2.6c0-0.98-0.18-1.84-0.56-2.59c-0.37-0.75-0.96-1.34-1.76-1.77
			s-1.84-0.64-3.11-0.64h-5.23v21.79L78.5,27.21L78.5,27.21z"/>
		<path class="st1" d="M109.79,27.56c-2.1,0-3.98-0.51-5.63-1.54c-1.65-1.03-2.95-2.49-3.89-4.38s-1.42-4.1-1.42-6.66
			c0-2.57,0.47-4.79,1.42-6.68c0.94-1.89,2.24-3.35,3.89-4.38c1.65-1.04,3.53-1.56,5.63-1.56c2.12,0,4,0.52,5.63,1.56
			c1.64,1.04,2.93,2.5,3.88,4.38c0.94,1.89,1.42,4.11,1.42,6.68c0,2.55-0.47,4.78-1.42,6.66c-0.94,1.89-2.24,3.34-3.88,4.38
			C113.78,27.04,111.91,27.56,109.79,27.56z M109.79,24.7c1.47,0,2.8-0.37,3.99-1.12c1.19-0.74,2.14-1.84,2.85-3.29
			c0.71-1.45,1.06-3.21,1.06-5.31s-0.36-3.88-1.06-5.34c-0.71-1.45-1.66-2.55-2.85-3.3c-1.19-0.74-2.52-1.12-3.99-1.12
			s-2.8,0.37-4,1.12c-1.19,0.75-2.15,1.85-2.85,3.3c-0.71,1.45-1.06,3.22-1.06,5.33c0,2.1,0.36,3.86,1.06,5.3
			c0.71,1.44,1.66,2.54,2.85,3.29C106.99,24.32,108.32,24.7,109.79,24.7z"/>
		<path class="st1" d="M133.34,27.64c-1.79,0-3.34-0.3-4.66-0.9s-2.35-1.43-3.08-2.5c-0.74-1.07-1.14-2.33-1.22-3.77h3.16
			c0.06,0.98,0.36,1.79,0.89,2.44c0.53,0.65,1.22,1.14,2.08,1.46s1.8,0.48,2.84,0.48c1.13,0,2.13-0.18,3.02-0.54
			c0.88-0.36,1.58-0.87,2.09-1.52s0.76-1.41,0.76-2.28c0-0.77-0.21-1.4-0.62-1.9c-0.42-0.5-0.99-0.91-1.72-1.24
			s-1.56-0.62-2.51-0.87l-2.91-0.81c-2.1-0.57-3.69-1.37-4.78-2.41c-1.1-1.04-1.65-2.37-1.65-4c0-1.39,0.37-2.6,1.1-3.64
			c0.74-1.04,1.73-1.84,3.01-2.42c1.27-0.58,2.71-0.86,4.31-0.86c1.63,0,3.07,0.29,4.32,0.87s2.22,1.38,2.93,2.4
			c0.71,1.02,1.09,2.18,1.14,3.49h-3.02c-0.13-1.27-0.7-2.26-1.7-2.96s-2.26-1.05-3.77-1.05c-1.05,0-1.98,0.18-2.78,0.53
			s-1.42,0.83-1.87,1.43s-0.67,1.3-0.67,2.07c0,0.8,0.24,1.45,0.73,1.96s1.1,0.92,1.82,1.23c0.73,0.3,1.45,0.56,2.18,0.76l2.52,0.67
			c0.78,0.2,1.58,0.46,2.38,0.8c0.81,0.34,1.56,0.76,2.26,1.28c0.69,0.51,1.25,1.16,1.68,1.92c0.43,0.77,0.64,1.69,0.64,2.76
			c0,1.36-0.36,2.58-1.06,3.65s-1.72,1.92-3.05,2.54C136.8,27.33,135.2,27.64,133.34,27.64z"/>
		<path class="st1" d="M145.21,5.44V2.71h18.61v2.73h-7.74v21.77h-3.09V5.44H145.21z"/>
		<!-- <path class="st1" d="M171.14,27.59c-0.97,0-1.77-0.32-2.43-0.96c-0.65-0.64-0.98-1.44-0.98-2.39c0-0.95,0.32-1.75,0.98-2.39
			c0.65-0.64,1.46-0.96,2.43-0.96c0.95,0,1.76,0.32,2.41,0.96c0.65,0.64,0.98,1.44,0.98,2.39c0,0.95-0.32,1.75-0.98,2.39
			C172.9,27.27,172.1,27.59,171.14,27.59z"/> -->
	</g>
</g>
</svg>
