<?xml version="1.0" encoding="utf-8"?>
<!-- Generator: Adobe Illustrator 27.8.1, SVG Export Plug-In . SVG Version: 6.00 Build 0)  -->
<svg version="1.1" id="Layer_1" xmlns="http://www.w3.org/2000/svg" xmlns:xlink="http://www.w3.org/1999/xlink" x="0px" y="0px"
	 viewBox="0 0 300 300" style="enable-background:new 0 0 300 300;" xml:space="preserve">
<style type="text/css">
	.st0{fill:#0057A3;}
	.st1{fill:#FFFFFF;}
</style>
<g>
	<path class="st0" d="M194.28,234.52c0.55-0.28,1.1-0.57,1.64-0.86c-0.29,0.16-0.59,0.32-0.88,0.47
		C194.79,234.26,194.53,234.39,194.28,234.52z"/>
	<path class="st0" d="M230.2,201.89c1.12-1.75,2.18-3.54,3.19-5.36C232.38,198.36,231.32,200.14,230.2,201.89z"/>
	<path class="st0" d="M244.82,151.86c0,0.76-0.01,1.53-0.03,2.29c0,0.11,0,0.23-0.01,0.35c-0.01,0.63-0.04,1.27-0.07,1.9
		c-0.01,0.15-0.01,0.3-0.02,0.45c-0.04,0.72-0.09,1.44-0.14,2.15c-0.06,0.79-0.13,1.57-0.21,2.35c-0.08,0.78-0.17,1.56-0.27,2.33
		c-0.07,0.59-0.15,1.18-0.24,1.77c-0.04,0.3-0.09,0.61-0.14,0.91c-0.1,0.68-0.22,1.35-0.34,2.02c-0.13,0.73-0.27,1.46-0.42,2.19
		c-0.15,0.75-0.31,1.5-0.49,2.25c-0.13,0.57-0.26,1.14-0.41,1.7c-0.1,0.42-0.21,0.83-0.32,1.24c-0.34,1.28-0.7,2.54-1.09,3.79
		c-0.22,0.7-0.44,1.39-0.68,2.08c-0.23,0.68-0.46,1.35-0.71,2.02c-0.09,0.25-0.18,0.5-0.28,0.75c-0.16,0.46-0.34,0.91-0.52,1.37
		c-0.03,0.09-0.07,0.17-0.11,0.26c-0.53,1.36-1.1,2.7-1.7,4.03c-0.31,0.69-0.63,1.37-0.95,2.04c-0.33,0.68-0.66,1.35-1.01,2.02
		c-0.28,0.55-0.56,1.1-0.86,1.64c-0.13,0.26-0.27,0.52-0.41,0.77c-1.01,1.83-2.07,3.61-3.19,5.36v0.01
		c-0.41,0.63-0.82,1.25-1.23,1.86c-0.42,0.62-0.84,1.23-1.28,1.84c-0.43,0.6-0.87,1.2-1.31,1.8c-0.45,0.6-0.9,1.19-1.36,1.77
		c-0.46,0.59-0.93,1.16-1.4,1.74c-0.47,0.57-0.95,1.14-1.44,1.7c-0.47,0.54-0.95,1.08-1.43,1.62c-0.02,0.01-0.03,0.03-0.05,0.05
		c-0.48,0.53-0.96,1.05-1.45,1.57c-0.04,0.03-0.07,0.06-0.1,0.1c-0.5,0.52-1.01,1.04-1.52,1.55c-0.49,0.49-0.99,0.98-1.49,1.47
		c-0.65,0.61-1.31,1.23-1.98,1.83c-0.47,0.42-0.94,0.84-1.42,1.25c-0.56,0.49-1.13,0.97-1.7,1.44c-0.54,0.45-1.08,0.88-1.63,1.32
		c-0.04,0.03-0.07,0.05-0.11,0.08c-0.54,0.42-1.08,0.84-1.63,1.26c-0.08,0.06-0.17,0.12-0.25,0.18c-1.12,0.84-2.26,1.65-3.41,2.43
		c-0.1,0.06-0.19,0.13-0.28,0.19c-0.42,0.28-0.83,0.55-1.25,0.82c-0.78,0.51-1.56,1-2.35,1.48c-0.64,0.39-1.28,0.77-1.93,1.14
		c-0.59,0.34-1.18,0.67-1.78,1c-0.16,0.09-0.33,0.18-0.5,0.27c-0.54,0.29-1.09,0.58-1.64,0.86c-0.02,0.01-0.03,0.02-0.04,0.02
		c-0.53,0.28-1.07,0.54-1.61,0.81c-0.44,0.21-0.89,0.43-1.34,0.63c-0.74,0.35-1.5,0.69-2.25,1.01c-0.38,0.18-0.76,0.34-1.15,0.5
		c-0.59,0.25-1.19,0.5-1.79,0.73c-0.05,0.02-0.09,0.04-0.14,0.06c-0.59,0.23-1.18,0.46-1.78,0.68c-1.11,0.41-2.22,0.8-3.35,1.16
		c-2.14-16.76-2.16-32.52-1.77-43.23c-0.03-1.13-0.06-2.26-0.08-3.39l0.78-12.52c3.08,4.6,8.15,7.87,16.66,6.19
		c14.28-2.82,23.09-18.15,20.62-41.59c-4.09-30.01-20.13-28.16-29.86-23.99c-0.66,0.23-1.31,0.49-1.95,0.77
		c-3.16,1.41-5.96,3.48-8.37,6.21c-0.24-0.86-0.55-1.8-0.94-2.81c-0.39-1.01-0.88-1.97-1.46-2.87c-0.59-0.9-1.29-1.64-2.11-2.22
		c-0.82-0.59-1.74-0.88-2.75-0.88c-1.56,0-2.89,0.64-3.98,1.93c-1.1,1.29-1.99,2.97-2.69,5.03c-0.71,2.07-1.23,4.35-1.58,6.85
		c-0.35,2.5-0.61,4.92-0.76,7.26c-0.16,2.34-0.24,4.51-0.24,6.5v4.38c0,5.23,0.04,10.44,0.12,15.63c0.07,5.19,0.12,10.4,0.12,15.63
		v4.8c0,1.8,0.02,3.77,0.08,5.9c-0.01,0.85-0.01,1.67,0,2.48c0.03,3.44,0.08,6.07,0.15,7.88c0.07,1.62,0.22,4.13,0.47,7.51
		c0.24,3.38,0.57,7.09,0.98,11.14c0.42,4.04,0.98,8.2,1.69,12.47c0.5,3.04,1.07,5.87,1.71,8.5c-1.46,0.23-2.92,0.41-4.4,0.55
		c-0.71,0.07-1.42,0.14-2.13,0.19c-0.08,0.01-0.16,0.01-0.24,0.02c-0.69,0.05-1.38,0.09-2.07,0.13h-0.16
		c-0.64,0.04-1.28,0.06-1.91,0.08c-0.29,0.01-0.58,0.02-0.86,0.02c-0.63,0.01-1.27,0.02-1.9,0.02c-51.27,0-92.82-41.56-92.82-92.83
		c0-0.68,0.01-1.35,0.03-2.03c0-0.3,0.01-0.6,0.02-0.9c0.01-0.59,0.04-1.18,0.07-1.77c0-0.08,0-0.16,0.01-0.24
		c0.04-0.73,0.08-1.47,0.14-2.2c0.07-0.85,0.14-1.7,0.23-2.54c0.07-0.64,0.14-1.28,0.22-1.92c0.01-0.07,0.02-0.15,0.03-0.22
		c0.08-0.63,0.16-1.25,0.26-1.87c0.15-1.04,0.32-2.07,0.51-3.09c0.25-1.41,0.54-2.8,0.86-4.18c0.03-0.15,0.07-0.29,0.1-0.44
		c0.13-0.55,0.26-1.09,0.4-1.64c0.44-1.73,0.93-3.44,1.47-5.13c0.17-0.54,0.35-1.07,0.53-1.6c0.23-0.67,0.46-1.34,0.7-2.01
		c0.05-0.12,0.09-0.24,0.13-0.35c0.24-0.64,0.48-1.27,0.73-1.9c0.26-0.66,0.53-1.32,0.8-1.98c0.31-0.73,0.63-1.46,0.96-2.19
		c0.24-0.53,0.49-1.06,0.74-1.59c0.12-0.27,0.25-0.53,0.38-0.79c0.27-0.56,0.55-1.12,0.83-1.67c0.25-0.48,0.49-0.95,0.75-1.42
		c0.37-0.69,0.74-1.38,1.13-2.06c0.84-1.48,1.71-2.93,2.62-4.34c0.36-0.56,0.72-1.1,1.08-1.64c0.07-0.11,0.13-0.21,0.21-0.3
		c0.31-0.47,0.63-0.94,0.96-1.4c0.25-0.37,0.52-0.74,0.79-1.1c1.6-2.21,3.3-4.35,5.09-6.4c0.36-0.42,0.73-0.84,1.11-1.25
		c0.19-0.22,0.39-0.44,0.59-0.65c0.28-0.31,0.57-0.61,0.86-0.92c0.45-0.48,0.91-0.96,1.38-1.43c1.25-1.27,2.53-2.5,3.84-3.68
		c0.39-0.36,0.79-0.71,1.19-1.06c0.19-0.17,0.38-0.33,0.57-0.49c0.39-0.35,0.79-0.68,1.19-1.01c1.8-1.5,3.66-2.93,5.57-4.29
		c0.15-0.11,0.29-0.21,0.44-0.3c-0.37,1.44-0.72,2.94-1.05,4.49c-0.86,4.11-1.59,8.15-2.19,12.13c-0.6,3.98-1.06,7.69-1.37,11.11
		c-0.32,3.43-0.53,6.04-0.64,7.85c-0.1,1.62-0.19,4.13-0.29,7.52c-0.07,2.36-0.11,4.89-0.13,7.58c-0.01,0.08-0.01,0.17-0.01,0.26
		c-0.24,6.17-0.43,12.33-0.59,18.5c-0.16,4.68-0.49,9.34-0.99,13.99c-0.51,4.64-0.76,9.26-0.76,13.87v0.93
		c0,1.57,0.15,3.09,0.46,4.57c0.31,1.48,0.84,2.81,1.58,3.98c0.74,1.17,1.7,2.13,2.87,2.87c1.17,0.74,2.65,1.11,4.45,1.11
		c1.95,0,3.59-0.55,4.92-1.64c1.32-1.09,2.38-2.44,3.16-4.04c0.78-1.6,1.34-3.31,1.69-5.15c0.36-1.83,0.61-3.53,0.76-5.09
		c0.16-2.26,0.39-4.53,0.71-6.79c0.31-2.26,0.43-4.52,0.35-6.79l7.02-4.33c1.56,3.36,3.14,6.67,4.74,9.95
		c1.6,3.28,3.22,6.55,4.86,9.83c0.62,1.33,1.42,2.89,2.4,4.68c0.98,1.8,2.11,3.5,3.4,5.1c1.28,1.6,2.69,2.94,4.21,4.03
		c1.52,1.1,3.18,1.64,4.97,1.64c2.27,0,3.94-0.68,5.04-2.05c1.09-1.36,1.64-3.13,1.64-5.32c0-1.41-0.18-2.89-0.53-4.45
		s-0.8-3.12-1.35-4.68c-0.54-1.56-1.15-3.08-1.81-4.57c-0.66-1.48-1.35-2.84-2.05-4.09c-1.95-3.75-3.9-7.47-5.85-11.18
		s-4.02-7.4-6.21-11.06c2.11-2.11,4.2-4.59,6.27-7.44c2.06-2.85,3.92-5.85,5.56-9.01s2.94-6.38,3.92-9.66
		c0.97-3.28,1.46-6.48,1.46-9.6c0-2.1-0.53-3.8-1.58-5.09c-1.05-1.29-2.71-1.93-4.97-1.93c-2.11,0-4.1,0.92-5.97,2.75
		c-1.88,1.83-3.59,3.98-5.15,6.44c-1.57,2.46-3.01,4.99-4.33,7.61c-1.33,2.61-2.5,4.66-3.52,6.14c-1.64,2.5-3.53,4.96-5.67,7.38
		c-2.15,2.42-4.36,4.56-6.62,6.43c0.24-4.91,0.35-9.83,0.35-14.74c0-1.72,0.02-3.87,0.06-6.44c0-0.21,0.01-0.42,0.01-0.63
		c0.07-1.47,0.15-2.94,0.24-4.41c0.32-5.24,0.8-10.45,1.43-15.63c0.64-5.17,1.11-10.33,1.42-15.48c0.1-1.52,0.17-3.36,0.23-5.51
		c0.05-1.77,0-3.49-0.16-5.14h0.01c0.52-0.23,1.05-0.46,1.58-0.67c0.38-0.16,0.76-0.31,1.14-0.46c0.16-0.07,0.31-0.13,0.47-0.18
		c0.48-0.2,0.96-0.38,1.44-0.56c0.36-0.13,0.72-0.26,1.08-0.39c0.38-0.14,0.77-0.27,1.15-0.4c0.61-0.21,1.21-0.41,1.82-0.6
		c0.56-0.18,1.12-0.36,1.69-0.52c0.28-0.09,0.56-0.17,0.83-0.25c0.61-0.17,1.23-0.34,1.85-0.5c0.05-0.02,0.11-0.04,0.16-0.05
		c0.58-0.15,1.17-0.3,1.76-0.44c0.49-0.12,0.98-0.24,1.47-0.34c0.58-0.14,1.16-0.26,1.75-0.38c0.75-0.16,1.51-0.3,2.28-0.44
		c0.97-0.17,1.95-0.33,2.93-0.47c0.56-0.09,1.11-0.16,1.68-0.23c2.28-0.29,4.6-0.5,6.93-0.62c0.61-0.04,1.22-0.06,1.84-0.08
		c1.01-0.03,2.03-0.05,3.05-0.05C203.26,59.04,244.82,100.6,244.82,151.86z"/>
	<path class="st1" d="M149.91,180.66c0,2.19-0.55,3.96-1.64,5.32c-1.1,1.37-2.77,2.05-5.04,2.05c-1.79,0-3.45-0.54-4.97-1.64
		c-1.52-1.09-2.93-2.43-4.21-4.03c-1.29-1.6-2.42-3.3-3.4-5.1c-0.98-1.79-1.78-3.35-2.4-4.68c-1.64-3.28-3.26-6.55-4.86-9.83
		c-1.6-3.28-3.18-6.59-4.74-9.95l-7.02,4.33c0.08,2.27-0.04,4.53-0.35,6.79c-0.32,2.26-0.55,4.53-0.71,6.79
		c-0.15,1.56-0.4,3.26-0.76,5.09c-0.35,1.84-0.91,3.55-1.69,5.15c-0.78,1.6-1.84,2.95-3.16,4.04c-1.33,1.09-2.97,1.64-4.92,1.64
		c-1.8,0-3.28-0.37-4.45-1.11c-1.17-0.74-2.13-1.7-2.87-2.87c-0.74-1.17-1.27-2.5-1.58-3.98c-0.31-1.48-0.46-3-0.46-4.57v-0.93
		c0-4.61,0.25-9.23,0.76-13.87c0.5-4.65,0.83-9.31,0.99-13.99c0.16-6.17,0.35-12.33,0.59-18.5c0-0.09,0-0.18,0.01-0.26
		c0.02-2.69,0.06-5.22,0.13-7.58c0.1-3.39,0.19-5.9,0.29-7.52c0.11-1.81,0.32-4.42,0.64-7.85c0.31-3.42,0.77-7.13,1.37-11.11
		c0.6-3.98,1.33-8.02,2.19-12.13c0.33-1.55,0.68-3.05,1.05-4.49c5.11-3.6,10.59-6.69,16.39-9.2c0.16,1.65,0.21,3.37,0.16,5.14
		c-0.06,2.15-0.13,3.99-0.23,5.51c-0.31,5.15-0.78,10.31-1.42,15.48c-0.63,5.18-1.11,10.39-1.43,15.63
		c-0.09,1.47-0.17,2.94-0.24,4.41c0,0.21-0.01,0.42-0.01,0.63c-0.04,2.57-0.06,4.72-0.06,6.44c0,4.91-0.11,9.83-0.35,14.74
		c2.26-1.87,4.47-4.01,6.62-6.43c2.14-2.42,4.03-4.88,5.67-7.38c1.02-1.48,2.19-3.53,3.52-6.14c1.32-2.62,2.76-5.15,4.33-7.61
		c1.56-2.46,3.27-4.61,5.15-6.44c1.87-1.83,3.86-2.75,5.97-2.75c2.26,0,3.92,0.64,4.97,1.93c1.05,1.29,1.58,2.99,1.58,5.09
		c0,3.12-0.49,6.32-1.46,9.6c-0.98,3.28-2.28,6.5-3.92,9.66s-3.5,6.16-5.56,9.01c-2.07,2.85-4.16,5.33-6.27,7.44
		c2.19,3.66,4.26,7.35,6.21,11.06s3.9,7.43,5.85,11.18c0.7,1.25,1.39,2.61,2.05,4.09c0.66,1.49,1.27,3.01,1.81,4.57
		c0.55,1.56,1,3.12,1.35,4.68S149.91,179.25,149.91,180.66z"/>
	<path class="st1" d="M196.42,187.17c-8.51,1.68-13.58-1.59-16.66-6.19l-0.78,12.52c0.02,1.13,0.05,2.26,0.08,3.39
		c-0.39,10.71-0.37,26.47,1.77,43.23c-4.89,1.6-9.95,2.8-15.16,3.56c-0.64-2.63-1.21-5.46-1.71-8.5c-0.71-4.27-1.27-8.43-1.69-12.47
		c-0.41-4.05-0.74-7.76-0.98-11.14c-0.25-3.38-0.4-5.89-0.47-7.51c-0.07-1.81-0.12-4.44-0.15-7.88c-0.01-0.81-0.01-1.63,0-2.48
		c-0.06-2.13-0.08-4.1-0.08-5.9V183c0-5.23-0.05-10.44-0.12-15.63c-0.08-5.19-0.12-10.4-0.12-15.63v-4.38c0-1.99,0.08-4.16,0.24-6.5
		c0.15-2.34,0.41-4.76,0.76-7.26c0.35-2.5,0.87-4.78,1.58-6.85c0.7-2.06,1.59-3.74,2.69-5.03c1.09-1.29,2.42-1.93,3.98-1.93
		c1.01,0,1.93,0.29,2.75,0.88c0.82,0.58,1.52,1.32,2.11,2.22c0.58,0.9,1.07,1.86,1.46,2.87c0.39,1.01,0.7,1.95,0.94,2.81
		c2.41-2.73,5.21-4.8,8.37-6.21c0.64-0.28,1.29-0.54,1.95-0.77c9.73-4.17,25.77-6.02,29.86,23.99
		C219.51,169.02,210.7,184.35,196.42,187.17z"/>
</g>
</svg>
